<?xml  version="1.0" encoding="UTF-8"?>
<!DOCTYPE svg PUBLIC "-//W3C//DTD SVG 1.0//EN" "http://www.w3.org/TR/2001/REC-SVG-20010904/DTD/svg10.dtd" >
<svg xmlns="http://www.w3.org/2000/svg" >
<metadata>
<version>1.0</version>
<id><![CDATA[Proxima N W01SC X Cd Bold It]]></id>
<vendor>Monotype Imaging Inc.</vendor>
<credits>
<name>Fonts.com WebFonts</name>
<URL>http://webfonts.fonts.com</URL>
<role>Home of the Web fonts</role>
</credits>
<license>
<URL>http://webfonts.fonts.com/Legal</URL>
</license>
<copyright><![CDATA[Copyright (c) Mark Simonson, 2005. All rights reserved.]]></copyright>
<trademark><![CDATA[Proxima Nova is a trademark of Mark Simonson.]]></trademark>
<licensee>
<name></name>
</licensee>
</metadata>
<defs >
<font horiz-adv-x="383" id="e67ade5a-e513-44e2-a869-80cd706a1435">
<font-face font-family="" panose-1="2 0 5 6 3 0 0 2 0 4" ascent="769" descent="-231" units-per-em="1000" alphabetic="0">
</font-face>
<missing-glyph horiz-adv-x="0" />

<glyph unicode="&#xA;" />
<glyph unicode="&#xD;" horiz-adv-x="0" />
<glyph unicode=" " horiz-adv-x="161" />
<glyph unicode="!" horiz-adv-x="198" d="M134 194H44L104 550H229L134 194ZM53 -11Q25 -11 6 8T-14 56Q-14 89 10 113T67 137Q95 137 114 117T134 69Q134 36 110 13T53 -11Z"  />
<glyph unicode="&quot;" horiz-adv-x="389" d="M114 386Q117 443 120 490Q121 510 122 529T124 564T125 590T126 604Q127 636 147 656T198 677Q221 677 237 661T253 620Q253 612 251 605T246 592Q245 590 241 580T231 554T218 521T203 484Q185 440 164 386H114ZM286 386Q289 443 292 490Q293 510 294 529T296 564T297 590T298 604Q299 636 319 656T371 677Q393 677 409 661T426 620Q426 612 424 605T419 592Q418 590 414 580T404 554T391 521T376 484Q358 440 336 386H286Z"  />
<glyph unicode="#" horiz-adv-x="391" d="M382 337H333L278 216H329L299 153H249L181 0H104L174 153H117L49 0H-28L42 153H-6L23 216H72L126 337H78L105 400H154L222 550H299L231 400H286L354 550H430L362 400H409L382 337ZM202 337L147 216H203L257 337H202Z"  />
<glyph unicode="$" horiz-adv-x="354" d="M85 -7Q51 -1 23 14T-25 56L40 141Q76 91 132 91Q159 91 176 112T193 162Q193 188 173 208T129 252T85 306T65 384Q65 417 76 446T106 499T152 537T210 559L226 628H309L292 556Q347 543 384 505L321 419Q307 439 287 449T244 459Q221 459 205 440T189 395Q189 370 209 351T253 307T297 250T317 165Q317 135 306 107T275 54T228 13T167 -9L153 -74H70L85 -7Z"  />
<glyph unicode="%" horiz-adv-x="478" d="M277 455Q277 425 268 395T242 341T200 302T146 287Q100 287 75 315T50 393Q50 423 59 453T86 507T127 547T182 562Q228 562 252 534T277 455ZM85 0H36L406 550H456L85 0ZM209 455Q209 502 179 502Q166 502 155 493T136 468T124 433T119 394Q119 369 127 358T149 347Q162 347 173 357T192 382T204 417T209 455ZM441 158Q441 128 432 98T405 44T364 5T310 -10Q264 -10 239 18T214 96Q214 126 223 156T250 210T291 250T345 265Q391 265 416 237T441 158ZM373 158Q373 205 342 205Q329 205 318 196T299 171T287 136T282 97Q282 72 290 61T312 50Q325 50 336 60T356 85T368 120T373 158Z"  />
<glyph unicode="&amp;" horiz-adv-x="389" d="M229 0Q226 6 224 12T218 24Q195 7 170 -2T119 -11Q62 -11 28 21T-7 110Q-7 150 3 180T31 235T72 277T119 311Q114 332 113 351T111 387Q111 424 123 456T154 511T199 548T252 562Q297 562 326 534T355 459Q355 425 344 400T313 354T270 316T221 283Q224 272 227 262T236 239Q241 223 246 209T256 181Q270 205 283 230T307 281L378 239Q360 200 338 163T290 94Q299 73 309 51T333 0H229ZM140 68Q163 68 190 93Q182 113 175 131T161 170Q156 184 151 197T142 224Q122 204 110 179T97 122Q97 101 108 85T140 68ZM202 387Q202 381 202 375T203 363Q230 382 247 404T265 457Q265 471 261 480T246 489Q237 489 229 481T215 458T206 425T202 387Z"  />
<glyph unicode="&apos;" horiz-adv-x="218" d="M114 386Q117 443 120 490Q121 510 122 529T124 564T125 590T126 604Q127 636 147 656T198 677Q221 677 237 661T253 620Q253 612 251 605T246 592Q245 590 241 580T231 554T218 521T203 484Q185 440 164 386H114Z"  />
<glyph unicode="(" horiz-adv-x="258" d="M58 -199Q41 -148 32 -87T23 36Q23 225 84 385T253 685L327 641Q285 570 251 490T191 324T152 151T138 -21Q138 -32 138 -50T140 -90T143 -132T147 -170L58 -199Z"  />
<glyph unicode=")" horiz-adv-x="258" d="M199 685Q216 634 225 573T235 450Q235 261 173 101T4 -199L-70 -155Q-28 -85 6 -4T66 162T105 335T119 507Q119 518 119 536T117 575T114 617T110 656L199 685Z"  />
<glyph unicode="*" horiz-adv-x="321" d="M158 373L189 487L82 438L65 491L174 530L87 590L127 636L207 568L226 677H285L254 563L361 612L378 559L270 519L356 459L315 413L236 482L218 373H158Z"  />
<glyph unicode="+" d="M243 302L210 156H132L165 302H42L57 373H181L211 512H290L259 373H382L366 302H243Z"  />
<glyph unicode="&#x2c;" horiz-adv-x="251" d="M161 62Q161 35 151 7T121 -46T77 -92T23 -128L-18 -85Q9 -72 37 -50T76 -1H66Q43 -1 27 14T10 58Q10 74 17 88T35 113T61 130T91 137Q119 137 140 118T161 62Z"  />
<glyph unicode="-" horiz-adv-x="241" d="M19 194L40 290H221L200 194H19Z"  />
<glyph unicode="." horiz-adv-x="248" d="M77 -11Q48 -11 29 8T10 56Q10 89 34 113T91 137Q119 137 138 117T158 69Q158 36 134 13T77 -11Z"  />
<glyph unicode="/" horiz-adv-x="227" d="M-60 -20L243 687H327L23 -20H-60Z"  />
<glyph unicode="0" horiz-adv-x="454" d="M442 367Q442 335 436 294T416 211T382 129T333 58T270 7T192 -12Q115 -12 69 37T23 183Q23 215 29 256T49 339T84 421T132 492T195 543T274 562Q351 562 396 513T442 367ZM315 371Q315 450 266 450Q246 450 230 434T200 391T178 334T162 272T153 216T150 179Q150 137 162 119T199 100Q219 100 236 116T265 159T287 216T303 278T312 333T315 371Z"  />
<glyph unicode="1" horiz-adv-x="348" d="M116 0L202 388L88 291L32 367L254 550H363L242 0H116Z"  />
<glyph unicode="2" horiz-adv-x="427" d="M-13 0L10 105Q157 200 226 270T296 394Q296 421 280 436T235 451Q175 451 132 387L65 462Q103 510 149 536T252 562Q332 562 381 525T430 421Q430 345 369 271T187 111H357L333 0H-13Z"  />
<glyph unicode="3" horiz-adv-x="440" d="M162 -129Q129 -129 97 -121T38 -95T-9 -53T-39 5L63 69Q74 27 100 5T162 -17Q185 -17 201 -6T229 23T245 62T251 104Q251 137 231 152T182 167Q171 167 162 167T145 166L171 279Q174 279 181 279T196 278T211 278T222 278Q244 278 260 287T287 312T303 348T309 388Q309 419 290 433T237 448Q211 448 185 433T141 392L74 467Q106 506 153 533T258 560Q297 560 330 551T387 523T424 477T438 413Q438 377 426 345T394 288T346 245T290 222Q314 214 330 200T355 169T369 133T374 94Q374 49 358 9T314 -62T246 -111T162 -129Z"  />
<glyph unicode="4" horiz-adv-x="430" d="M319 35L285 -117H159L193 35H-31L-6 147L285 550H432L343 146H393L369 35H319ZM274 403L96 146H217L274 403Z"  />
<glyph unicode="5" horiz-adv-x="445" d="M162 -129Q84 -129 37 -93T-31 4L68 67Q79 26 103 5T161 -17Q182 -17 200 -4T231 31T253 81T261 138Q261 169 247 187T201 206Q175 206 156 194T118 159L32 192L111 550H452L427 439H213L174 263Q194 287 217 297T271 308Q326 308 360 268T394 155Q394 100 378 49T331 -41T257 -105T162 -129Z"  />
<glyph unicode="6" horiz-adv-x="442" d="M198 -12Q113 -12 71 44T28 196Q28 235 35 285T58 389T97 494T154 586T229 652T324 677Q376 677 415 653T475 586L391 504Q384 532 366 548T318 565Q293 565 272 548T233 504T203 442T180 373Q177 364 177 360T174 347Q196 382 228 404T296 427Q348 427 383 389T418 280Q418 230 403 178T360 84T291 15T198 -12ZM201 100Q222 100 238 117T266 158T282 210T288 257Q288 285 276 305T236 325Q210 325 191 303T156 252Q153 238 151 219T149 181Q149 143 161 122T201 100Z"  />
<glyph unicode="7" horiz-adv-x="390" d="M-10 -117L273 439H60L84 550H440L420 463L128 -117H-10Z"  />
<glyph unicode="8" horiz-adv-x="441" d="M193 -12Q102 -12 53 22T4 138Q4 169 13 201T42 262T91 314T162 353Q132 371 111 405T89 484Q89 525 105 560T149 621T213 662T290 677Q323 677 354 670T411 645T452 599T468 530Q468 493 456 461T424 404T378 362T321 336Q360 312 380 274T400 192Q400 148 385 111T343 46T277 4T193 -12ZM251 384Q266 390 281 399T310 424T331 459T339 508Q339 535 325 550T286 565Q253 565 232 534T211 461Q211 434 224 414T251 384ZM192 100Q208 100 223 109T249 133T268 170T275 216Q275 234 271 248T259 273T245 290T232 300Q215 295 198 284T167 255T144 214T135 163Q135 131 151 116T192 100Z"  />
<glyph unicode="9" horiz-adv-x="442" d="M257 561Q342 561 384 505T427 353Q427 314 420 264T397 160T357 55T300 -37T225 -103T130 -128Q79 -128 39 -104T-20 -37L64 45Q71 17 89 1T137 -16Q162 -16 183 1T221 45T251 107T274 176Q277 185 278 189T281 202Q259 167 227 145T158 122Q106 122 71 160T36 269Q36 319 51 371T94 465T164 534T257 561ZM254 449Q232 449 216 432T189 391T173 339T167 292Q167 264 179 244T218 224Q244 224 263 246T298 297Q301 311 303 330T305 368Q305 406 293 427T254 449Z"  />
<glyph unicode=":" horiz-adv-x="247" d="M77 -11Q49 -11 30 8T10 56Q10 89 34 113T91 137Q120 137 139 117T158 69Q158 36 134 13T77 -11ZM155 342Q127 342 108 361T88 410Q88 426 94 440T112 466T137 483T169 490Q197 490 216 470T236 422Q236 389 212 366T155 342Z"  />
<glyph unicode=";" horiz-adv-x="249" d="M161 62Q161 35 151 7T121 -46T77 -92T23 -128L-18 -85Q9 -72 37 -50T76 -1H66Q43 -1 27 14T10 58Q10 74 17 88T35 113T61 130T91 137Q119 137 140 118T161 62ZM155 342Q127 342 108 361T88 410Q88 426 94 440T112 466T137 483T169 490Q197 490 216 470T236 422Q236 389 212 366T155 342Z"  />
<glyph unicode="&lt;" d="M39 294L58 375L413 514L394 425L132 330L352 237L334 156L39 294Z"  />
<glyph unicode="=" d="M61 393L77 465H402L386 393H61ZM20 203L36 275H360L345 203H20Z"  />
<glyph unicode="&gt;" d="M9 156L29 244L291 338L71 433L88 514L382 375L364 294L9 156Z"  />
<glyph unicode="?" horiz-adv-x="287" d="M322 460Q322 413 300 383T250 330T200 287T177 240Q177 233 179 227T185 214L92 183Q87 193 85 204T82 232Q82 269 100 293T140 338T180 378T198 427Q198 443 190 454T162 466Q137 466 117 444L76 511Q105 537 134 549T199 562Q253 562 287 535T322 460ZM99 -11Q70 -11 51 8T32 56Q32 72 38 87T56 113T81 130T112 137Q141 137 160 117T179 69Q179 52 173 38T155 13T130 -4T99 -11Z"  />
<glyph unicode="@" horiz-adv-x="635" d="M291 -70Q234 -70 190 -50T116 7T71 97T55 215Q55 297 82 373T157 508T268 602T404 638Q451 638 491 622T559 574T604 499T620 397Q620 333 607 277T570 178T517 110T452 85Q418 85 395 103T367 152L366 160Q347 131 321 108T253 85Q236 85 219 91T189 112T167 151T158 213Q158 264 171 314T210 406T270 472T348 498Q378 498 395 480T421 433L431 484H532L478 230Q477 226 476 218T475 203Q475 183 481 173T503 162Q513 162 526 178T551 224T571 297T579 396Q579 496 531 548T402 601Q338 601 282 568T185 480T119 357T95 217Q95 163 107 118T144 39T206 -14T295 -33Q340 -33 374 -19T443 22L463 -7Q422 -37 381 -53T291 -70ZM304 166Q330 166 347 186T376 228L405 366Q401 385 392 401T363 418Q339 418 320 399T289 352T270 290T263 230Q263 201 272 184T304 166Z"  />
<glyph unicode="A" horiz-adv-x="424" d="M243 0L250 123H125L79 0H-54L232 667H377L369 0H243ZM277 526L165 234H260L277 526Z"  />
<glyph unicode="B" horiz-adv-x="452" d="M-2 0L145 667H311Q350 667 379 656T429 625T459 579T469 523Q469 491 460 459T432 401T389 356T333 334Q353 328 367 316T391 288T404 252T409 213Q409 176 398 138T364 70T306 20T223 0H-2ZM257 395Q276 395 290 405T315 430T330 463T335 498Q335 527 319 541T274 556H247L211 395H257ZM197 111Q216 111 232 120T259 144T276 180T283 223Q283 284 222 284H187L148 111H197Z"  />
<glyph unicode="C" horiz-adv-x="429" d="M203 -12Q118 -12 74 43T30 200Q30 239 36 289T57 392T94 496T148 588T221 653T313 678Q357 678 387 662T437 618T464 557T475 488L359 465Q356 509 345 537T305 566Q282 566 262 546T226 493T198 419T177 337T164 259T159 197Q159 145 171 123T210 100Q253 100 293 182L394 139Q361 68 315 28T203 -12Z"  />
<glyph unicode="D" horiz-adv-x="475" d="M-2 0L145 667H307Q340 667 370 654T424 613T462 546T477 450Q477 417 471 371T451 274T413 175T355 87T273 24T165 0H-2ZM148 111H187Q216 111 239 130T281 180T312 249T333 325T345 395T349 448Q349 506 330 531T284 556H247L148 111Z"  />
<glyph unicode="E" horiz-adv-x="379" d="M-2 0L145 667H437L413 556H247L211 395H370L345 284H187L148 111H314L290 0H-2Z"  />
<glyph unicode="F" horiz-adv-x="375" d="M-2 0L145 667H437L413 556H247L211 395H370L345 284H187L124 0H-2Z"  />
<glyph unicode="G" horiz-adv-x="453" d="M203 -12Q117 -12 74 44T30 200Q30 242 37 294T60 399T98 502T152 592T224 654T313 678Q355 678 384 664T432 625T459 569T469 503L362 477Q360 513 348 539T306 566Q283 566 263 547T227 495T198 423T177 342T164 263T159 197Q159 143 171 122T210 100Q231 100 247 112T278 144L301 252H226L251 362H437L378 98Q343 43 299 16T203 -12Z"  />
<glyph unicode="H" horiz-adv-x="484" d="M252 0L315 288H187L124 0H-2L145 667H271L212 398H340L399 667H525L378 0H252Z"  />
<glyph unicode="I" horiz-adv-x="230" d="M-2 0L145 667H271L124 0H-2Z"  />
<glyph unicode="J" horiz-adv-x="348" d="M87 -12Q51 -12 18 -2T-37 31L14 131Q25 115 42 108T76 100Q139 100 155 173L264 667H390L280 167Q259 73 214 31T87 -12Z"  />
<glyph unicode="K" horiz-adv-x="471" d="M281 0L223 258L161 170L124 0H-2L145 667H271L207 376L404 667H549L318 353L414 0H281Z"  />
<glyph unicode="L" horiz-adv-x="365" d="M-2 0L145 667H271L148 111H314L290 0H-2Z"  />
<glyph unicode="M" horiz-adv-x="616" d="M386 0L479 422L275 0H233L217 422L124 0H-2L145 667H303L317 298L497 667H657L510 0H386Z"  />
<glyph unicode="N" horiz-adv-x="484" d="M260 0L208 384L124 0H-2L145 667H271L317 297L399 667H525L378 0H260Z"  />
<glyph unicode="O" horiz-adv-x="478" d="M203 -12Q158 -12 126 4T72 49T40 116T30 200Q30 238 37 288T58 392T95 496T149 588T221 653T313 678Q358 678 390 661T444 615T476 547T486 464Q486 426 479 376T458 273T421 169T367 78T294 13T203 -12ZM210 100Q233 100 252 120T288 172T318 244T340 325T353 403T358 467Q358 512 346 539T305 566Q282 566 262 546T226 494T198 421T177 339T164 261T159 197Q159 152 170 126T210 100Z"  />
<glyph unicode="P" horiz-adv-x="441" d="M-2 0L145 667H311Q347 667 376 654T426 619T458 565T470 498Q470 451 456 406T411 325T336 267T230 245H178L124 0H-2ZM240 356Q264 356 282 367T313 397T332 439T339 486Q339 521 323 538T282 556H247L202 356H243H240Z"  />
<glyph unicode="Q" horiz-adv-x="478" d="M203 -12Q158 -12 126 4T72 49T40 116T30 200Q30 238 37 288T58 392T95 496T149 588T221 653T313 678Q358 678 390 661T444 615T476 547T486 464Q486 418 476 357T445 233T392 114T313 25L320 -18L227 -36L223 -11Q218 -11 213 -11T203 -12ZM279 236L289 173Q305 205 318 245T340 326T353 404T358 467Q358 512 346 539T305 566Q282 566 262 546T226 494T198 421T177 339T164 261T159 197Q159 155 168 129T204 100L185 219L279 236Z"  />
<glyph unicode="R" horiz-adv-x="460" d="M241 0L223 245H178L124 0H-2L145 667H311Q346 667 375 654T425 618T458 565T470 498Q470 457 459 419T430 351T388 299T341 268L372 0H241ZM242 356Q265 356 283 367T313 397T331 438T338 486Q338 523 323 539T282 556H247L202 356H243H242Z"  />
<glyph unicode="S" horiz-adv-x="396" d="M152 -12Q96 -12 50 9T-22 64L50 157Q67 131 94 116T151 100Q182 100 205 124T229 191Q229 222 206 249T154 306T102 373T78 463Q78 508 94 547T138 615T203 661T284 678Q326 678 368 662T437 614L370 521Q355 542 332 554T283 566Q249 566 230 542T211 486Q211 466 222 448T250 411T286 373T322 330T350 278T361 214Q361 168 346 127T303 55T237 6T152 -12Z"  />
<glyph unicode="T" horiz-adv-x="364" d="M65 0L188 556H87L111 667H439L415 556H314L191 0H65Z"  />
<glyph unicode="U" horiz-adv-x="484" d="M209 -12Q173 -12 142 -1T87 32T50 85T37 155Q37 175 42 198L145 667H271L165 187Q164 182 163 173T162 158Q162 129 178 114T218 99Q246 99 264 118T294 187L399 667H525L420 193Q397 86 340 37T209 -12Z"  />
<glyph unicode="V" horiz-adv-x="424" d="M85 0L93 667H219L190 162L384 667H516L230 0H85Z"  />
<glyph unicode="W" horiz-adv-x="616" d="M309 0L349 430L199 0H71L104 667H230L187 220L350 667H449L415 220L568 667H698L437 0H309Z"  />
<glyph unicode="X" horiz-adv-x="438" d="M253 0L218 223L90 0H-55L171 347L100 667H232L261 455L379 667H525L309 334L386 0H253Z"  />
<glyph unicode="Y" horiz-adv-x="430" d="M98 0L159 276L89 667H217L243 398L389 667H527L285 276L224 0H98Z"  />
<glyph unicode="Z" horiz-adv-x="376" d="M-25 0L-2 107L260 556H98L122 667H432L410 565L145 111H317L292 0H-25Z"  />
<glyph unicode="[" horiz-adv-x="205" d="M-61 -190L131 678H283L266 602H197L38 -114H107L90 -190H-61Z"  />
<glyph unicode="\" horiz-adv-x="227" d="M88 687H169V-20H88V687Z"  />
<glyph unicode="]" horiz-adv-x="205" d="M-78 -190L-62 -114H7L166 602H97L114 678H265L72 -190H-78Z"  />
<glyph unicode="^" horiz-adv-x="337" d="M258 333L244 576L123 333H38L220 667H303L337 333H258Z"  />
<glyph unicode="_" horiz-adv-x="279" d="M-82 -116L-65 -40H219L202 -116H-82Z"  />
<glyph unicode="`" horiz-adv-x="178" d="M175 556L101 700H199L247 556H175Z"  />
<glyph unicode="a" horiz-adv-x="371" d="M319 550L317 0H197L203 99H105L67 0H-54L185 550H319ZM225 418L140 201H212L225 418Z"  />
<glyph unicode="b" horiz-adv-x="390" d="M-8 0L113 550H261Q328 550 364 519T401 436Q401 411 394 386T373 339T338 302T288 280Q350 254 350 181Q350 149 341 117T311 59T259 17T184 0H-8ZM173 102Q187 102 198 109T216 129T228 155T232 185Q232 229 192 229H159L131 102H173ZM181 331H218Q231 331 241 338T259 356T270 380T274 407Q274 448 229 448H208L181 331Z"  />
<glyph unicode="c" horiz-adv-x="385" d="M177 -12Q144 -12 116 -2T66 31T33 88T21 171Q21 203 27 244T45 329T77 414T123 489T184 542T261 562Q331 562 365 522T404 414L304 392Q299 459 259 459Q239 459 223 443T193 401T170 343T154 279T144 219T140 174Q140 127 152 109T188 91Q211 91 226 109T255 160L343 121Q330 95 315 72T280 29T235 -1T177 -12Z"  />
<glyph unicode="d" horiz-adv-x="427" d="M-8 0L113 550H234Q273 550 306 540T364 508T403 449T417 361Q417 330 412 292T394 213T362 135T314 66T247 18T161 0H-8ZM174 102Q204 102 227 130T265 198T289 282T297 358Q297 406 279 427T225 448H207L131 102H169H174Z"  />
<glyph unicode="e" horiz-adv-x="336" d="M-8 0L113 550H372L350 448H208L181 331H318L295 229H159L131 102H273L251 0H-8Z"  />
<glyph unicode="f" horiz-adv-x="333" d="M-8 0L113 550H372L350 448H208L181 331H318L295 229H159L109 0H-8Z"  />
<glyph unicode="g" horiz-adv-x="407" d="M185 -12Q103 -12 62 35T21 173Q21 209 27 252T47 339T81 422T128 494T188 543T263 562Q329 562 364 521T403 412L304 392Q301 420 291 439T257 459Q229 459 208 426T171 346T148 251T140 173Q140 127 153 109T192 91Q220 91 236 109L257 205H200L221 301H383L326 46Q297 19 263 4T185 -12Z"  />
<glyph unicode="h" horiz-adv-x="434" d="M217 0L267 231H159L109 0H-8L113 550H230L182 333H290L338 550H455L334 0H217Z"  />
<glyph unicode="i" horiz-adv-x="208" d="M-8 0L113 550H230L109 0H-8Z"  />
<glyph unicode="j" horiz-adv-x="308" d="M72 -12Q37 -12 6 -2T-42 28L8 118Q25 91 61 91Q111 91 124 151L212 550H329L238 137Q221 56 181 22T72 -12Z"  />
<glyph unicode="k" horiz-adv-x="417" d="M229 0L183 201L140 141L109 0H-8L113 550H230L180 321L341 550H470L272 291L359 0H229Z"  />
<glyph unicode="l" horiz-adv-x="323" d="M-8 0L113 550H230L131 102H273L251 0H-8Z"  />
<glyph unicode="m" horiz-adv-x="540" d="M325 0L397 326L239 0H194L180 327L109 0H-8L113 550H257L270 247L418 550H562L441 0H325Z"  />
<glyph unicode="n" horiz-adv-x="427" d="M215 0L178 313L109 0H-8L113 550H232L266 251L331 550H448L327 0H215Z"  />
<glyph unicode="o" horiz-adv-x="432" d="M180 -12Q108 -12 65 33T21 172Q21 199 26 239T43 322T73 408T119 485T182 541T264 562Q336 562 380 517T424 378Q424 351 419 311T402 228T372 142T326 65T262 9T180 -12ZM187 91Q207 91 224 108T254 152T276 212T292 277T302 336T305 379Q305 416 295 437T259 459Q238 459 221 442T191 398T168 338T152 273T142 214T139 171Q139 134 150 113T187 91Z"  />
<glyph unicode="p" horiz-adv-x="386" d="M-8 0L113 550H252Q321 550 361 513T402 409Q402 371 390 333T354 265T294 215T211 196H152L109 0H-8ZM212 298Q228 298 241 307T262 330T275 361T280 395Q280 448 231 448H208L174 298H209H212Z"  />
<glyph unicode="q" horiz-adv-x="432" d="M180 -12Q108 -12 65 33T21 172Q21 199 26 239T43 322T73 408T119 485T182 541T264 562Q336 562 380 517T424 378Q424 345 417 295T392 192T346 92T275 17L281 -20L199 -35L195 -11Q190 -12 180 -12ZM247 192L253 151Q266 178 276 211T292 276T302 336T305 379Q305 416 295 437T259 459Q238 459 221 442T191 398T168 338T152 273T142 214T139 171Q139 137 148 116T178 91L165 177L247 192Z"  />
<glyph unicode="r" horiz-adv-x="401" d="M197 0L183 196H152L109 0H-8L113 550H248Q320 550 361 513T403 408Q403 375 394 344T370 287T335 242T292 213L322 0H197ZM213 298Q229 298 242 307T263 331T276 362T281 394Q281 422 268 435T234 448H208L174 298H203H213Z"  />
<glyph unicode="s" horiz-adv-x="354" d="M139 -12Q88 -12 46 4T-25 56L40 141Q76 91 132 91Q159 91 176 112T193 162Q193 188 173 208T129 252T85 306T65 384Q65 422 79 454T117 511T173 548T243 562Q283 562 320 548T384 505L321 419Q307 439 287 449T244 459Q221 459 205 440T189 395Q189 370 209 351T253 307T297 250T317 165Q317 132 304 101T267 44T211 4T139 -12Z"  />
<glyph unicode="t" horiz-adv-x="310" d="M42 0L141 448H59L82 550H362L340 448H258L160 0H42Z"  />
<glyph unicode="u" horiz-adv-x="433" d="M185 -12Q109 -12 66 22T23 117Q23 131 25 146T29 171L113 550H230L145 168Q143 162 143 154T142 141Q142 112 155 102T189 91Q214 91 229 110T252 169L336 550H454L370 173Q350 82 306 35T185 -12Z"  />
<glyph unicode="v" horiz-adv-x="371" d="M64 0L67 550H186L166 163L316 550H438L198 0H64Z"  />
<glyph unicode="w" horiz-adv-x="540" d="M262 0L287 321L170 0H52L71 550H191L164 215L291 550H384L362 214L484 550H603L380 0H262Z"  />
<glyph unicode="x" horiz-adv-x="386" d="M207 0L181 184L74 0H-56L128 281L72 550H199L221 376L319 550H449L274 281L334 0H207Z"  />
<glyph unicode="y" horiz-adv-x="379" d="M77 0L127 228L63 550H186L210 344L326 550H450L244 228L195 0H77Z"  />
<glyph unicode="z" horiz-adv-x="322" d="M-30 0L-11 89L202 447H68L91 550H359L341 464L126 103H267L244 0H-30Z"  />
<glyph unicode="{" horiz-adv-x="220" d="M85 -190Q66 -190 48 -184T15 -165T-8 -135T-17 -97Q-17 -90 -16 -83T-14 -70L33 144Q34 148 35 153T36 163Q36 184 26 197T-4 211L11 277Q40 277 55 295T78 344L126 560Q139 619 176 648T270 678H299L282 602H253Q237 602 225 591T208 560L157 324Q149 289 135 268T92 235Q121 220 121 180Q121 162 117 146L70 -65Q69 -69 68 -73T67 -83Q67 -98 75 -106T94 -114H123L106 -190H85Z"  />
<glyph unicode="|" horiz-adv-x="181" d="M72 -20V687H148V-20H72Z"  />
<glyph unicode="}" horiz-adv-x="220" d="M133 678Q152 678 170 672T203 653T227 623T236 584Q236 579 235 571T232 558L185 344Q183 334 183 325Q183 304 192 291T222 277L207 211Q178 211 163 193T141 144L93 -72Q79 -131 42 -160T-52 -190H-80L-63 -114H-35Q-19 -114 -7 -103T10 -72L62 164Q70 199 84 220T127 253Q113 260 106 274T98 308Q98 326 102 342L149 553Q151 563 151 571Q151 586 143 594T124 602H96L113 678H133Z"  />
<glyph unicode="~" horiz-adv-x="416" d="M481 661Q474 624 463 581T432 501T384 440T317 415Q288 415 273 428T252 462T244 505T243 548T239 581T224 595Q203 595 184 555T142 414L65 421Q72 458 84 500T115 580T163 641T230 666Q259 666 274 653T295 619T303 576T304 532T308 499T323 485Q343 485 363 525T405 667L481 661Z"  />
<glyph unicode="&#xA0;" horiz-adv-x="161" />
<glyph unicode="&#xA1;" horiz-adv-x="198" d="M64 356H154L94 0H-31L64 356ZM145 561Q173 561 192 542T212 494Q212 461 188 437T131 413Q103 413 84 433T64 481Q64 514 88 537T145 561Z"  />
<glyph unicode="&#xA2;" horiz-adv-x="385" d="M119 -3Q75 12 48 54T21 171Q21 202 26 241T43 323T73 406T116 480T172 535T244 561L258 622H341L325 550Q363 534 381 499T404 414L304 392Q299 459 259 459Q239 459 223 443T193 401T170 343T154 279T144 219T140 174Q140 127 152 109T188 91Q211 91 226 109T255 160L343 121Q331 98 318 76T287 36T249 6T200 -10L184 -86H101L119 -3Z"  />
<glyph unicode="&#xA3;" horiz-adv-x="350" d="M34 293H71Q69 307 67 323T65 358Q65 405 80 442T119 506T176 547T244 561Q270 561 293 553T335 530T363 494T375 445L282 423Q279 477 245 477Q228 477 216 465T197 433T185 390T181 344Q181 318 184 293H249L234 229H187Q187 225 187 221T186 213Q184 192 178 174T163 142T145 116T127 97Q137 102 146 102Q159 102 169 99T187 93T205 86T226 83Q243 83 256 90T279 108L293 27Q277 11 256 1T205 -9Q181 -9 165 -4T135 6T110 17T80 22Q64 22 48 14T11 -8L-6 64Q10 73 25 86T54 118T75 158T83 207Q83 212 83 218T82 229H19L34 293Z"  />
<glyph unicode="&#xA4;" horiz-adv-x="506" d="M253 222Q310 222 341 262T372 365Q372 395 364 421T341 467T304 498T253 509Q224 509 202 498T165 468T141 422T133 365Q133 334 141 308T164 263T202 233T253 222ZM19 168L88 239Q50 294 50 365Q50 436 88 489L19 560L64 603L131 534Q155 552 185 563T253 574Q289 574 320 563T375 534L442 603L487 560L418 489Q455 435 455 365Q455 330 445 298T417 240L487 168L442 125L374 194Q325 157 253 157Q181 157 132 194L64 125L19 168Z"  />
<glyph unicode="&#xA5;" horiz-adv-x="379" d="M77 0L101 109H-9L5 171H114L127 227H17L31 289H115L63 550H186L210 344L326 550H450L283 289H368L354 227H244L232 171H342L328 109H218L195 0H77Z"  />
<glyph unicode="&#xA6;" horiz-adv-x="181" d="M72 -20V296H148V-20H72ZM72 371V687H148V371H72Z"  />
<glyph unicode="&#xA7;" horiz-adv-x="347" d="M345 336Q345 286 320 248T243 186Q266 168 278 142T290 89Q290 54 277 23T241 -31T187 -67T119 -81Q65 -81 22 -65T-45 -14L18 57Q32 33 56 18T112 3Q142 3 160 24T179 74Q179 92 169 106T142 132T108 156T73 185T47 224T36 277Q36 326 65 364T146 416Q120 435 106 463T91 521Q91 555 103 583T138 633T189 665T250 677Q309 677 345 660T405 612L345 550Q328 575 306 585T258 596Q232 596 216 578T199 535Q199 517 210 504T237 477T272 451T307 422T334 385T345 336ZM240 308Q240 332 230 348T208 375Q168 367 155 345T141 298Q141 280 151 261T185 227Q240 251 240 308Z"  />
<glyph unicode="&#xA8;" horiz-adv-x="277" d="M363 616Q363 589 342 568T293 547Q270 547 255 563T239 602Q239 629 260 650T308 671Q331 671 347 655T363 616ZM200 616Q200 589 179 568T131 547Q108 547 92 563T76 602Q76 629 97 650T145 671Q169 671 184 655T200 616Z"  />
<glyph unicode="&#xA9;" horiz-adv-x="778" d="M754 334Q754 263 727 200T652 90T542 16T408 -11Q337 -11 274 16T165 90T91 200T64 334Q64 405 91 468T164 578T274 652T408 679Q479 679 542 652T652 578T726 468T754 334ZM719 334Q719 398 695 454T628 553T529 619T408 644Q344 644 288 620T190 553T124 455T99 334Q99 270 123 214T190 115T288 49T408 24Q472 24 528 48T627 115T694 213T719 334ZM529 176Q502 153 467 138T392 122Q348 122 313 136T252 175T214 234T200 307Q200 358 219 402T272 478T347 528T434 546Q486 546 527 527T593 466L557 440Q539 474 507 491T432 508Q398 508 365 493T304 452T261 388T244 308Q244 278 254 252T283 205T330 172T392 160Q424 160 455 174T506 208L529 176Z"  />
<glyph unicode="&#xAA;" horiz-adv-x="313" d="M224 583Q208 583 195 568T173 531T158 482T153 435Q153 411 161 398T187 384Q199 384 211 395T232 423L260 548Q257 562 247 572T224 583ZM363 640L294 326H211L219 365Q202 339 183 329T146 318Q113 318 91 343T68 428Q68 462 77 500T103 572T145 626T202 648Q224 648 243 637T272 602L280 640H363Z"  />
<glyph unicode="&#xAB;" horiz-adv-x="385" d="M79 63L29 243L159 420H249L116 239L165 63H79ZM226 63L176 243L306 420H396L263 239L312 63H226Z"  />
<glyph unicode="&#xAC;" d="M345 203H271L312 393H61L77 465H402L345 203Z"  />
<glyph unicode="&#xAD;" horiz-adv-x="241" d="M19 194L40 290H221L200 194H19Z"  />
<glyph unicode="&#xAE;" horiz-adv-x="494" d="M508 465Q508 421 492 383T446 315T378 270T295 253Q251 253 213 269T146 315T101 382T84 465Q84 509 100 548T146 615T213 660T296 677Q340 677 379 661T446 616T491 548T508 465ZM477 465Q477 503 463 536T424 593T366 632T295 646Q257 646 225 632T168 594T129 536T115 465Q115 428 129 395T167 338T224 299T295 284Q332 284 365 298T423 337T462 395T477 465ZM329 343L287 439H242L221 343H188L241 586H333Q364 586 384 569T404 522Q404 504 397 489T379 463T353 446T324 440L368 343H329ZM369 519Q369 537 358 547T327 557H268L249 469H314Q337 469 353 483T369 519Z"  />
<glyph unicode="&#xAF;" horiz-adv-x="258" d="M77 591L91 657H348L334 591H77Z"  />
<glyph unicode="&#xB0;" horiz-adv-x="305" d="M351 545Q351 518 341 494T312 452T270 424T219 414Q192 414 168 424T126 452T98 494T88 545Q88 572 98 596T126 638T168 666T219 677Q246 677 270 667T312 638T340 596T351 545ZM287 545Q287 573 267 593T219 614Q190 614 171 594T151 545Q151 517 170 498T218 478Q246 478 266 497T287 545Z"  />
<glyph unicode="&#xB1;" d="M243 302L210 156H132L165 302H42L57 373H181L211 512H290L259 373H382L366 302H243ZM-19 27L-4 98H321L306 27H-19Z"  />
<glyph unicode="&#xB2;" horiz-adv-x="293" d="M67 421L82 489Q146 543 187 579T251 640T283 682T292 717Q292 737 280 747T247 758Q205 758 169 713L128 768Q153 795 185 811T254 827Q280 827 302 821T342 801T369 769T379 725Q379 698 368 673T332 621T272 563T188 490H330L315 421H67Z"  />
<glyph unicode="&#xB3;" horiz-adv-x="293" d="M340 541Q340 518 331 496T304 455T262 426T205 414Q160 414 124 432T72 484L135 532Q144 509 161 496T201 483Q215 483 225 489T243 506T253 528T257 551Q257 572 244 581T213 591Q205 591 197 591T184 590L199 659Q203 658 214 658T231 658Q258 658 274 674T291 718Q291 737 279 747T245 758Q204 758 173 719L129 768Q182 827 253 827Q309 827 343 803T377 731Q377 714 371 696T353 662T324 636T284 622Q313 613 326 591T340 541Z"  />
<glyph unicode="&#xB4;" horiz-adv-x="178" d="M140 556H67L178 700H279L140 556Z"  />
<glyph unicode="&#xB5;" horiz-adv-x="420" d="M-49 -184L99 483H211L135 138Q123 87 161 87Q183 87 204 106T240 149L314 483H427L320 0H207L220 59Q200 33 167 12T101 -12L63 -184H-49Z"  />
<glyph unicode="&#xB6;" horiz-adv-x="449" d="M261 -100L419 609H338L180 -100H122L216 323Q188 323 163 334T120 367T90 416T79 479Q79 514 93 548T134 608T195 651T273 667H489L319 -100H261Z"  />
<glyph unicode="&#xB7;" horiz-adv-x="248" d="M117 171Q89 171 70 190T50 238Q50 271 74 294T131 318Q159 318 178 299T198 250Q198 234 192 220T174 195T148 178T117 171Z"  />
<glyph unicode="&#xB8;" horiz-adv-x="182" d="M3 -194Q-54 -194 -88 -155L-58 -112Q-47 -127 -31 -136T4 -145Q23 -145 34 -133T46 -104Q46 -82 24 -82Q10 -82 -1 -95L-37 -71L12 11H69L29 -52Q34 -47 40 -45T52 -43Q75 -43 89 -59T104 -102Q104 -142 75 -168T3 -194Z"  />
<glyph unicode="&#xB9;" horiz-adv-x="244" d="M153 421L216 707L151 652L110 704L253 821H328L240 421H153Z"  />
<glyph unicode="&#xBA;" horiz-adv-x="308" d="M186 318Q129 318 100 351T71 439Q71 472 81 509T111 577T160 628T228 648Q285 648 314 615T343 527Q343 494 333 457T302 389T253 338T186 318ZM189 385Q207 385 220 402T242 444T255 492T259 531Q259 580 223 580Q205 580 192 563T171 521T158 473T154 434Q154 385 189 385Z"  />
<glyph unicode="&#xBB;" horiz-adv-x="385" d="M159 420L209 240L79 63H-11L122 244L73 420H159ZM306 420L356 240L226 63H136L269 244L220 420H306Z"  />
<glyph unicode="&#xBC;" horiz-adv-x="648" d="M155 0H105L530 667H581L155 0ZM567 90L548 0H462L482 90H334L349 157L532 400H636L582 158H616L601 90H567ZM529 302L422 158H496L529 302ZM119 267L182 553L117 498L76 550L219 667H294L206 267H119Z"  />
<glyph unicode="&#xBD;" horiz-adv-x="683" d="M155 0H105L530 667H581L155 0ZM364 0L379 68Q443 122 484 158T548 219T580 261T589 296Q589 316 577 326T544 337Q502 337 466 292L425 347Q450 374 482 390T551 406Q577 406 599 400T639 380T666 348T676 304Q676 277 665 252T629 200T569 142T485 69H627L612 0H364ZM119 267L182 553L117 498L76 550L219 667H294L206 267H119Z"  />
<glyph unicode="&#xBE;" horiz-adv-x="684" d="M191 0H141L566 667H617L191 0ZM603 90L584 0H498L518 90H370L385 157L568 400H672L618 158H652L637 90H603ZM565 302L458 158H532L565 302ZM306 387Q306 364 297 342T270 301T228 272T171 260Q126 260 90 278T38 330L101 378Q110 355 127 342T167 329Q181 329 191 335T209 352T219 374T223 397Q223 418 210 427T179 437Q171 437 163 437T150 436L165 505Q169 504 180 504T197 504Q224 504 240 520T257 564Q257 583 245 593T211 604Q170 604 139 565L95 614Q148 673 219 673Q275 673 309 649T343 577Q343 560 337 542T319 508T290 482T250 468Q279 459 292 437T306 387Z"  />
<glyph unicode="&#xBF;" horiz-adv-x="287" d="M-35 90Q-35 137 -13 167T37 220T87 263T110 310Q110 317 108 323T102 336L195 367Q200 357 202 346T205 318Q205 281 187 257T147 212T107 172T89 123Q89 107 97 96T125 84Q150 84 170 106L211 39Q182 13 153 1T88 -12Q34 -12 0 15T-35 90ZM188 561Q217 561 236 542T255 494Q255 477 249 463T231 437T206 420T175 413Q146 413 127 433T108 481Q108 497 114 512T132 537T157 554T188 561Z"  />
<glyph unicode="&#xC0;" horiz-adv-x="424" d="M312 728L238 872H336L384 728H312ZM243 0L250 123H125L79 0H-54L232 667H377L369 0H243ZM277 526L165 234H260L277 526Z"  />
<glyph unicode="&#xC1;" horiz-adv-x="424" d="M327 728H254L365 872H466L327 728ZM243 0L250 123H125L79 0H-54L232 667H377L369 0H243ZM277 526L165 234H260L277 526Z"  />
<glyph unicode="&#xC2;" horiz-adv-x="424" d="M374 728L341 820L270 728H205L299 872H402L435 728H374ZM243 0L250 123H125L79 0H-54L232 667H377L369 0H243ZM277 526L165 234H260L277 526Z"  />
<glyph unicode="&#xC3;" horiz-adv-x="424" d="M365 726Q342 726 333 737T318 763T308 788T288 800Q262 800 248 732H188Q201 791 226 828T294 866Q317 866 326 855T341 829T352 804T371 792Q396 792 412 860H472Q459 802 433 764T365 726ZM243 0L250 123H125L79 0H-54L232 667H377L369 0H243ZM277 526L165 234H260L277 526Z"  />
<glyph unicode="&#xC4;" horiz-adv-x="424" d="M474 788Q474 761 453 740T404 719Q381 719 366 735T350 774Q350 801 371 822T419 843Q442 843 458 827T474 788ZM311 788Q311 761 290 740T242 719Q219 719 203 735T187 774Q187 801 208 822T256 843Q280 843 295 827T311 788ZM243 0L250 123H125L79 0H-54L232 667H377L369 0H243ZM277 526L165 234H260L277 526Z"  />
<glyph unicode="&#xC5;" horiz-adv-x="424" d="M320 692Q285 692 263 714T241 772Q241 792 249 810T270 841T302 863T340 871Q375 871 397 849T419 791Q419 771 411 753T390 722T358 700T320 692ZM326 741Q343 741 356 754T370 786Q370 801 361 811T336 822Q318 822 305 809T291 777Q291 762 300 752T326 741ZM243 0L250 123H125L79 0H-54L232 667H377L369 0H243ZM277 526L165 234H260L277 526Z"  />
<glyph unicode="&#xC6;" horiz-adv-x="606" d="M230 0L257 123H146L83 0H-49L323 667H669L645 556H479L443 395H602L577 284H419L380 111H546L522 0H230ZM343 514L201 234H282L343 514Z"  />
<glyph unicode="&#xC7;" horiz-adv-x="429" d="M152 -194Q95 -194 61 -155L91 -112Q102 -127 118 -136T153 -145Q172 -145 183 -133T195 -104Q195 -82 173 -82Q159 -82 148 -95L112 -71L151 -5Q91 11 61 63T30 200Q30 239 36 289T57 392T94 496T148 588T221 653T313 678Q357 678 387 662T437 618T464 557T475 488L359 465Q356 509 345 537T305 566Q282 566 262 546T226 493T198 419T177 337T164 259T159 197Q159 145 171 123T210 100Q253 100 293 182L394 139Q361 68 315 28T203 -12L178 -52Q183 -47 189 -45T201 -43Q224 -43 238 -59T253 -102Q253 -142 224 -168T152 -194Z"  />
<glyph unicode="&#xC8;" horiz-adv-x="379" d="M300 728L226 872H324L372 728H300ZM-2 0L145 667H437L413 556H247L211 395H370L345 284H187L148 111H314L290 0H-2Z"  />
<glyph unicode="&#xC9;" horiz-adv-x="379" d="M316 728H243L354 872H455L316 728ZM-2 0L145 667H437L413 556H247L211 395H370L345 284H187L148 111H314L290 0H-2Z"  />
<glyph unicode="&#xCA;" horiz-adv-x="379" d="M360 728L327 820L256 728H191L285 872H388L421 728H360ZM-2 0L145 667H437L413 556H247L211 395H370L345 284H187L148 111H314L290 0H-2Z"  />
<glyph unicode="&#xCB;" horiz-adv-x="379" d="M462 788Q462 761 441 740T392 719Q369 719 354 735T338 774Q338 801 359 822T407 843Q430 843 446 827T462 788ZM299 788Q299 761 278 740T230 719Q207 719 191 735T175 774Q175 801 196 822T244 843Q268 843 283 827T299 788ZM-2 0L145 667H437L413 556H247L211 395H370L345 284H187L148 111H314L290 0H-2Z"  />
<glyph unicode="&#xCC;" horiz-adv-x="230" d="M214 728L140 872H238L286 728H214ZM-2 0L145 667H271L124 0H-2Z"  />
<glyph unicode="&#xCD;" horiz-adv-x="230" d="M231 728H158L269 872H370L231 728ZM-2 0L145 667H271L124 0H-2Z"  />
<glyph unicode="&#xCE;" horiz-adv-x="230" d="M276 728L243 820L172 728H107L201 872H304L337 728H276ZM-2 0L145 667H271L124 0H-2Z"  />
<glyph unicode="&#xCF;" horiz-adv-x="230" d="M379 788Q379 761 358 740T309 719Q286 719 271 735T255 774Q255 801 276 822T324 843Q347 843 363 827T379 788ZM216 788Q216 761 195 740T147 719Q124 719 108 735T92 774Q92 801 113 822T161 843Q185 843 200 827T216 788ZM-2 0L145 667H271L124 0H-2Z"  />
<glyph unicode="&#xD0;" horiz-adv-x="498" d="M21 0L83 283H24L47 384H105L168 667H330Q363 667 393 654T447 613T485 546T500 450Q500 417 494 371T474 274T436 175T378 87T296 24T188 0H21ZM232 384H301L279 283H209L171 111H210Q239 111 262 130T304 180T335 249T356 325T368 395T372 448Q372 506 353 531T307 556H270L232 384Z"  />
<glyph unicode="&#xD1;" horiz-adv-x="484" d="M398 726Q375 726 366 737T351 763T341 788T321 800Q295 800 281 732H221Q234 791 259 828T327 866Q350 866 359 855T374 829T385 804T404 792Q429 792 445 860H505Q492 802 466 764T398 726ZM260 0L208 384L124 0H-2L145 667H271L317 297L399 667H525L378 0H260Z"  />
<glyph unicode="&#xD2;" horiz-adv-x="478" d="M338 728L264 872H362L410 728H338ZM203 -12Q158 -12 126 4T72 49T40 116T30 200Q30 238 37 288T58 392T95 496T149 588T221 653T313 678Q358 678 390 661T444 615T476 547T486 464Q486 426 479 376T458 273T421 169T367 78T294 13T203 -12ZM210 100Q233 100 252 120T288 172T318 244T340 325T353 403T358 467Q358 512 346 539T305 566Q282 566 262 546T226 494T198 421T177 339T164 261T159 197Q159 152 170 126T210 100Z"  />
<glyph unicode="&#xD3;" horiz-adv-x="478" d="M354 728H281L392 872H493L354 728ZM203 -12Q158 -12 126 4T72 49T40 116T30 200Q30 238 37 288T58 392T95 496T149 588T221 653T313 678Q358 678 390 661T444 615T476 547T486 464Q486 426 479 376T458 273T421 169T367 78T294 13T203 -12ZM210 100Q233 100 252 120T288 172T318 244T340 325T353 403T358 467Q358 512 346 539T305 566Q282 566 262 546T226 494T198 421T177 339T164 261T159 197Q159 152 170 126T210 100Z"  />
<glyph unicode="&#xD4;" horiz-adv-x="478" d="M401 728L368 820L297 728H232L326 872H429L462 728H401ZM203 -12Q158 -12 126 4T72 49T40 116T30 200Q30 238 37 288T58 392T95 496T149 588T221 653T313 678Q358 678 390 661T444 615T476 547T486 464Q486 426 479 376T458 273T421 169T367 78T294 13T203 -12ZM210 100Q233 100 252 120T288 172T318 244T340 325T353 403T358 467Q358 512 346 539T305 566Q282 566 262 546T226 494T198 421T177 339T164 261T159 197Q159 152 170 126T210 100Z"  />
<glyph unicode="&#xD5;" horiz-adv-x="478" d="M397 726Q374 726 365 737T350 763T340 788T320 800Q294 800 280 732H220Q233 791 258 828T326 866Q349 866 358 855T373 829T384 804T403 792Q428 792 444 860H504Q491 802 465 764T397 726ZM203 -12Q158 -12 126 4T72 49T40 116T30 200Q30 238 37 288T58 392T95 496T149 588T221 653T313 678Q358 678 390 661T444 615T476 547T486 464Q486 426 479 376T458 273T421 169T367 78T294 13T203 -12ZM210 100Q233 100 252 120T288 172T318 244T340 325T353 403T358 467Q358 512 346 539T305 566Q282 566 262 546T226 494T198 421T177 339T164 261T159 197Q159 152 170 126T210 100Z"  />
<glyph unicode="&#xD6;" horiz-adv-x="478" d="M501 788Q501 761 480 740T431 719Q408 719 393 735T377 774Q377 801 398 822T446 843Q469 843 485 827T501 788ZM338 788Q338 761 317 740T269 719Q246 719 230 735T214 774Q214 801 235 822T283 843Q307 843 322 827T338 788ZM203 -12Q158 -12 126 4T72 49T40 116T30 200Q30 238 37 288T58 392T95 496T149 588T221 653T313 678Q358 678 390 661T444 615T476 547T486 464Q486 426 479 376T458 273T421 169T367 78T294 13T203 -12ZM210 100Q233 100 252 120T288 172T318 244T340 325T353 403T358 467Q358 512 346 539T305 566Q282 566 262 546T226 494T198 421T177 339T164 261T159 197Q159 152 170 126T210 100Z"  />
<glyph unicode="&#xD7;" d="M205 283L79 180L35 236L162 339L85 437L141 483L217 385L343 488L387 432L262 329L338 231L281 185L205 283Z"  />
<glyph unicode="&#xD8;" horiz-adv-x="478" d="M203 -12Q165 -12 136 0T85 33L62 0H-11L50 87Q39 112 35 140T30 200Q30 238 37 288T58 392T95 496T149 588T221 653T313 678Q351 678 380 666T431 631L456 667H529L466 577Q486 526 486 464Q486 426 479 376T458 273T421 169T367 78T294 13T203 -12ZM305 566Q285 566 268 551T235 511T208 452T187 384T171 313T162 247L352 519Q347 541 336 553T305 566ZM210 100Q240 100 264 133T307 214T338 317T355 418L164 145Q173 100 210 100Z"  />
<glyph unicode="&#xD9;" horiz-adv-x="484" d="M342 728L268 872H366L414 728H342ZM209 -12Q173 -12 142 -1T87 32T50 85T37 155Q37 175 42 198L145 667H271L165 187Q164 182 163 173T162 158Q162 129 178 114T218 99Q246 99 264 118T294 187L399 667H525L420 193Q397 86 340 37T209 -12Z"  />
<glyph unicode="&#xDA;" horiz-adv-x="484" d="M358 728H285L396 872H497L358 728ZM209 -12Q173 -12 142 -1T87 32T50 85T37 155Q37 175 42 198L145 667H271L165 187Q164 182 163 173T162 158Q162 129 178 114T218 99Q246 99 264 118T294 187L399 667H525L420 193Q397 86 340 37T209 -12Z"  />
<glyph unicode="&#xDB;" horiz-adv-x="484" d="M404 728L371 820L300 728H235L329 872H432L465 728H404ZM209 -12Q173 -12 142 -1T87 32T50 85T37 155Q37 175 42 198L145 667H271L165 187Q164 182 163 173T162 158Q162 129 178 114T218 99Q246 99 264 118T294 187L399 667H525L420 193Q397 86 340 37T209 -12Z"  />
<glyph unicode="&#xDC;" horiz-adv-x="484" d="M504 788Q504 761 483 740T434 719Q411 719 396 735T380 774Q380 801 401 822T449 843Q472 843 488 827T504 788ZM341 788Q341 761 320 740T272 719Q249 719 233 735T217 774Q217 801 238 822T286 843Q310 843 325 827T341 788ZM209 -12Q173 -12 142 -1T87 32T50 85T37 155Q37 175 42 198L145 667H271L165 187Q164 182 163 173T162 158Q162 129 178 114T218 99Q246 99 264 118T294 187L399 667H525L420 193Q397 86 340 37T209 -12Z"  />
<glyph unicode="&#xDD;" horiz-adv-x="430" d="M332 728H259L370 872H471L332 728ZM98 0L159 276L89 667H217L243 398L389 667H527L285 276L224 0H98Z"  />
<glyph unicode="&#xDE;" horiz-adv-x="441" d="M-2 0L145 667H271L247 556H286Q321 556 350 544T400 509T433 456T445 387Q445 343 432 299T389 218T314 158T206 135H153L124 0H-2ZM216 245Q239 245 257 256T288 285T307 327T314 375Q314 409 299 427T257 446H222L178 245H216Z"  />
<glyph unicode="&#xDF;" horiz-adv-x="708" d="M139 -12Q88 -12 46 4T-25 56L40 141Q76 91 132 91Q159 91 176 112T193 162Q193 188 173 208T129 252T85 306T65 384Q65 422 79 454T117 511T173 548T243 562Q283 562 320 548T384 505L321 419Q307 439 287 449T244 459Q221 459 205 440T189 395Q189 370 209 351T253 307T297 250T317 165Q317 132 304 101T267 44T211 4T139 -12ZM493 -12Q442 -12 400 4T329 56L394 141Q430 91 486 91Q513 91 530 112T547 162Q547 188 527 208T483 252T439 306T419 384Q419 422 433 454T471 511T527 548T597 562Q637 562 674 548T738 505L675 419Q661 439 641 449T598 459Q575 459 559 440T543 395Q543 370 563 351T607 307T651 250T671 165Q671 132 658 101T621 44T565 4T493 -12Z"  />
<glyph unicode="&#xE0;" horiz-adv-x="371" d="M319 550L317 0H197L203 99H105L67 0H-54L185 550H319ZM225 418L140 201H212L225 418ZM258 606L184 750H282L330 606H258Z"  />
<glyph unicode="&#xE1;" horiz-adv-x="371" d="M319 550L317 0H197L203 99H105L67 0H-54L185 550H319ZM225 418L140 201H212L225 418ZM273 606H200L311 750H412L273 606Z"  />
<glyph unicode="&#xE2;" horiz-adv-x="371" d="M319 550L317 0H197L203 99H105L67 0H-54L185 550H319ZM225 418L140 201H212L225 418ZM319 606L286 698L215 606H150L244 750H347L380 606H319Z"  />
<glyph unicode="&#xE3;" horiz-adv-x="371" d="M319 550L317 0H197L203 99H105L67 0H-54L185 550H319ZM225 418L140 201H212L225 418ZM315 604Q292 604 283 615T268 641T258 666T238 678Q212 678 198 610H138Q151 669 176 706T244 744Q267 744 276 733T291 707T302 682T321 670Q346 670 362 738H422Q409 680 383 642T315 604Z"  />
<glyph unicode="&#xE4;" horiz-adv-x="371" d="M319 550L317 0H197L203 99H105L67 0H-54L185 550H319ZM225 418L140 201H212L225 418ZM422 677Q422 650 401 629T352 608Q329 608 314 624T298 663Q298 690 319 711T367 732Q390 732 406 716T422 677ZM259 677Q259 650 238 629T190 608Q167 608 151 624T135 663Q135 690 156 711T204 732Q228 732 243 716T259 677Z"  />
<glyph unicode="&#xE5;" horiz-adv-x="371" d="M319 550L317 0H197L203 99H105L67 0H-54L185 550H319ZM225 418L140 201H212L225 418ZM272 599Q237 599 215 621T193 679Q193 699 201 717T222 748T254 770T292 778Q327 778 349 756T371 698Q371 678 363 660T342 629T310 607T272 599ZM278 648Q295 648 308 661T322 693Q322 708 313 718T288 729Q270 729 257 716T243 684Q243 669 252 659T278 648Z"  />
<glyph unicode="&#xE6;" horiz-adv-x="526" d="M182 0L203 99H114L64 0H-58L251 550H562L540 448H398L372 331H508L485 229H349L322 102H464L441 0H182ZM274 419L162 201H226L274 419Z"  />
<glyph unicode="&#xE7;" horiz-adv-x="385" d="M125 -194Q68 -194 34 -155L64 -112Q75 -127 91 -136T126 -145Q145 -145 156 -133T168 -104Q168 -82 146 -82Q132 -82 121 -95L85 -71L124 -4Q78 10 50 52T21 171Q21 203 27 244T45 329T77 414T123 489T184 542T261 562Q331 562 365 522T404 414L304 392Q299 459 259 459Q239 459 223 443T193 401T170 343T154 279T144 219T140 174Q140 127 152 109T188 91Q211 91 226 109T255 160L343 121Q330 95 315 72T280 29T235 -1T177 -12H176L151 -52Q156 -47 162 -45T174 -43Q197 -43 211 -59T226 -102Q226 -142 197 -168T125 -194Z"  />
<glyph unicode="&#xE8;" horiz-adv-x="336" d="M-8 0L113 550H372L350 448H208L181 331H318L295 229H159L131 102H273L251 0H-8ZM248 606L174 750H272L320 606H248Z"  />
<glyph unicode="&#xE9;" horiz-adv-x="336" d="M-8 0L113 550H372L350 448H208L181 331H318L295 229H159L131 102H273L251 0H-8ZM264 606H191L302 750H403L264 606Z"  />
<glyph unicode="&#xEA;" horiz-adv-x="336" d="M-8 0L113 550H372L350 448H208L181 331H318L295 229H159L131 102H273L251 0H-8ZM309 606L276 698L205 606H140L234 750H337L370 606H309Z"  />
<glyph unicode="&#xEB;" horiz-adv-x="336" d="M-8 0L113 550H372L350 448H208L181 331H318L295 229H159L131 102H273L251 0H-8ZM413 677Q413 650 392 629T343 608Q320 608 305 624T289 663Q289 690 310 711T358 732Q381 732 397 716T413 677ZM250 677Q250 650 229 629T181 608Q158 608 142 624T126 663Q126 690 147 711T195 732Q219 732 234 716T250 677Z"  />
<glyph unicode="&#xEC;" horiz-adv-x="205" d="M-8 0L113 550H230L109 0H-8ZM175 606L101 750H199L247 606H175Z"  />
<glyph unicode="&#xED;" horiz-adv-x="205" d="M-8 0L113 550H230L109 0H-8ZM191 606H118L229 750H330L191 606Z"  />
<glyph unicode="&#xEE;" horiz-adv-x="205" d="M-8 0L113 550H230L109 0H-8ZM236 606L203 698L132 606H67L161 750H264L297 606H236Z"  />
<glyph unicode="&#xEF;" horiz-adv-x="205" d="M-8 0L113 550H230L109 0H-8ZM340 677Q340 650 319 629T270 608Q247 608 232 624T216 663Q216 690 237 711T285 732Q308 732 324 716T340 677ZM177 677Q177 650 156 629T108 608Q85 608 69 624T53 663Q53 690 74 711T122 732Q146 732 161 716T177 677Z"  />
<glyph unicode="&#xF0;" horiz-adv-x="447" d="M9 0L61 237H14L32 319H79L130 550H251Q290 550 323 540T381 508T420 449T434 361Q434 330 429 292T411 213T379 135T331 66T264 18T178 0H9ZM191 102Q221 102 244 130T282 198T306 282T314 358Q314 406 296 427T242 448H224L195 319H248L230 237H177L148 102H191Z"  />
<glyph unicode="&#xF1;" horiz-adv-x="427" d="M215 0L178 313L109 0H-8L113 550H232L266 251L331 550H448L327 0H215ZM342 604Q319 604 310 615T295 641T285 666T265 678Q239 678 225 610H165Q178 669 203 706T271 744Q294 744 303 733T318 707T329 682T348 670Q373 670 389 738H449Q436 680 410 642T342 604Z"  />
<glyph unicode="&#xF2;" horiz-adv-x="432" d="M180 -12Q108 -12 65 33T21 172Q21 199 26 239T43 322T73 408T119 485T182 541T264 562Q336 562 380 517T424 378Q424 351 419 311T402 228T372 142T326 65T262 9T180 -12ZM187 91Q207 91 224 108T254 152T276 212T292 277T302 336T305 379Q305 416 295 437T259 459Q238 459 221 442T191 398T168 338T152 273T142 214T139 171Q139 134 150 113T187 91ZM288 606L214 750H312L360 606H288Z"  />
<glyph unicode="&#xF3;" horiz-adv-x="432" d="M180 -12Q108 -12 65 33T21 172Q21 199 26 239T43 322T73 408T119 485T182 541T264 562Q336 562 380 517T424 378Q424 351 419 311T402 228T372 142T326 65T262 9T180 -12ZM187 91Q207 91 224 108T254 152T276 212T292 277T302 336T305 379Q305 416 295 437T259 459Q238 459 221 442T191 398T168 338T152 273T142 214T139 171Q139 134 150 113T187 91ZM305 606H232L343 750H444L305 606Z"  />
<glyph unicode="&#xF4;" horiz-adv-x="432" d="M180 -12Q108 -12 65 33T21 172Q21 199 26 239T43 322T73 408T119 485T182 541T264 562Q336 562 380 517T424 378Q424 351 419 311T402 228T372 142T326 65T262 9T180 -12ZM187 91Q207 91 224 108T254 152T276 212T292 277T302 336T305 379Q305 416 295 437T259 459Q238 459 221 442T191 398T168 338T152 273T142 214T139 171Q139 134 150 113T187 91ZM350 606L317 698L246 606H181L275 750H378L411 606H350Z"  />
<glyph unicode="&#xF5;" horiz-adv-x="432" d="M180 -12Q108 -12 65 33T21 172Q21 199 26 239T43 322T73 408T119 485T182 541T264 562Q336 562 380 517T424 378Q424 351 419 311T402 228T372 142T326 65T262 9T180 -12ZM187 91Q207 91 224 108T254 152T276 212T292 277T302 336T305 379Q305 416 295 437T259 459Q238 459 221 442T191 398T168 338T152 273T142 214T139 171Q139 134 150 113T187 91ZM345 604Q322 604 313 615T298 641T288 666T268 678Q242 678 228 610H168Q181 669 206 706T274 744Q297 744 306 733T321 707T332 682T351 670Q376 670 392 738H452Q439 680 413 642T345 604Z"  />
<glyph unicode="&#xF6;" horiz-adv-x="432" d="M180 -12Q108 -12 65 33T21 172Q21 199 26 239T43 322T73 408T119 485T182 541T264 562Q336 562 380 517T424 378Q424 351 419 311T402 228T372 142T326 65T262 9T180 -12ZM187 91Q207 91 224 108T254 152T276 212T292 277T302 336T305 379Q305 416 295 437T259 459Q238 459 221 442T191 398T168 338T152 273T142 214T139 171Q139 134 150 113T187 91ZM452 677Q452 650 431 629T382 608Q359 608 344 624T328 663Q328 690 349 711T397 732Q420 732 436 716T452 677ZM289 677Q289 650 268 629T220 608Q197 608 181 624T165 663Q165 690 186 711T234 732Q258 732 273 716T289 677Z"  />
<glyph unicode="&#xF7;" horiz-adv-x="374" d="M42 302L57 373H373L358 302H42ZM170 135Q149 135 134 149T119 186Q119 212 137 230T181 248Q202 248 217 233T232 195Q232 170 214 153T170 135ZM235 425Q213 425 198 440T183 476Q183 502 201 520T245 538Q267 538 282 523T297 486Q297 460 279 443T235 425Z"  />
<glyph unicode="&#xF8;" horiz-adv-x="432" d="M180 -12Q111 -12 68 29L46 0H-19L38 75Q21 115 21 172Q21 199 26 239T43 322T73 408T119 485T182 541T264 562Q336 562 378 518L403 550H468L407 471Q424 432 424 378Q424 351 419 311T402 228T372 142T326 65T262 9T180 -12ZM259 459Q232 459 212 432T178 367T154 285T141 209L301 418Q293 459 259 459ZM187 91Q212 91 231 116T265 179T288 258T301 333L144 127Q153 91 187 91Z"  />
<glyph unicode="&#xF9;" horiz-adv-x="433" d="M185 -12Q109 -12 66 22T23 117Q23 131 25 146T29 171L113 550H230L145 168Q143 162 143 154T142 141Q142 112 155 102T189 91Q214 91 229 110T252 169L336 550H454L370 173Q350 82 306 35T185 -12ZM288 606L214 750H312L360 606H288Z"  />
<glyph unicode="&#xFA;" horiz-adv-x="433" d="M185 -12Q109 -12 66 22T23 117Q23 131 25 146T29 171L113 550H230L145 168Q143 162 143 154T142 141Q142 112 155 102T189 91Q214 91 229 110T252 169L336 550H454L370 173Q350 82 306 35T185 -12ZM305 606H232L343 750H444L305 606Z"  />
<glyph unicode="&#xFB;" horiz-adv-x="433" d="M185 -12Q109 -12 66 22T23 117Q23 131 25 146T29 171L113 550H230L145 168Q143 162 143 154T142 141Q142 112 155 102T189 91Q214 91 229 110T252 169L336 550H454L370 173Q350 82 306 35T185 -12ZM351 606L318 698L247 606H182L276 750H379L412 606H351Z"  />
<glyph unicode="&#xFC;" horiz-adv-x="433" d="M185 -12Q109 -12 66 22T23 117Q23 131 25 146T29 171L113 550H230L145 168Q143 162 143 154T142 141Q142 112 155 102T189 91Q214 91 229 110T252 169L336 550H454L370 173Q350 82 306 35T185 -12ZM452 677Q452 650 431 629T382 608Q359 608 344 624T328 663Q328 690 349 711T397 732Q420 732 436 716T452 677ZM289 677Q289 650 268 629T220 608Q197 608 181 624T165 663Q165 690 186 711T234 732Q258 732 273 716T289 677Z"  />
<glyph unicode="&#xFD;" horiz-adv-x="379" d="M77 0L127 228L63 550H186L210 344L326 550H450L244 228L195 0H77ZM278 606H205L316 750H417L278 606Z"  />
<glyph unicode="&#xFE;" horiz-adv-x="386" d="M-8 0L113 550H230L212 465H233Q310 465 346 430T383 324Q383 286 371 248T335 180T275 130T192 111H133L109 0H-8ZM193 213Q209 213 222 222T243 246T256 277T261 310Q261 363 212 363H189L155 213H181H193Z"  />
<glyph unicode="&#xFF;" horiz-adv-x="379" d="M77 0L127 228L63 550H186L210 344L326 550H450L244 228L195 0H77ZM426 677Q426 650 405 629T356 608Q333 608 318 624T302 663Q302 690 323 711T371 732Q394 732 410 716T426 677ZM263 677Q263 650 242 629T194 608Q171 608 155 624T139 663Q139 690 160 711T208 732Q232 732 247 716T263 677Z"  />
<glyph unicode="&#x152;" horiz-adv-x="632" d="M256 0L267 50Q241 12 212 0T163 -12Q103 -12 66 43T29 200Q29 241 36 292T59 397T98 500T153 590T223 653T309 677Q333 677 358 664T393 617L403 667H695L671 556H505L469 395H628L603 284H445L406 111H572L548 0H256ZM361 476Q359 523 346 544T309 565Q284 565 264 545T226 493T197 421T176 340T163 261T158 197Q158 154 168 127T207 100Q230 100 254 123T298 191L361 476Z"  />
<glyph unicode="&#x153;" horiz-adv-x="565" d="M221 0L229 37Q211 11 188 0T142 -12Q112 -12 89 1T51 38T29 93T21 161Q21 197 27 240T45 328T75 415T119 489T177 542T250 562Q277 562 301 548T332 504L342 550H602L579 448H437L411 331H548L525 229H388L361 102H503L481 0H221ZM305 382Q305 459 259 459Q239 459 223 443T193 400T169 342T153 278T143 218T139 171Q139 133 150 112T187 91Q210 91 226 111T258 169L305 382Z"  />
<glyph unicode="&#x160;" horiz-adv-x="389" d="M273 728L240 872H301L334 780L405 872H470L376 728H273ZM152 -12Q96 -12 50 9T-22 64L50 157Q67 131 94 116T151 100Q182 100 205 124T229 191Q229 222 206 249T154 306T102 373T78 463Q78 508 94 547T138 615T203 661T284 678Q326 678 368 662T437 614L370 521Q355 542 332 554T283 566Q249 566 230 542T211 486Q211 466 222 448T250 411T286 373T322 330T350 278T361 214Q361 168 346 127T303 55T237 6T152 -12Z"  />
<glyph unicode="&#x161;" horiz-adv-x="354" d="M139 -12Q88 -12 46 4T-25 56L40 141Q76 91 132 91Q159 91 176 112T193 162Q193 188 173 208T129 252T85 306T65 384Q65 422 79 454T117 511T173 548T243 562Q283 562 320 548T384 505L321 419Q307 439 287 449T244 459Q221 459 205 440T189 395Q189 370 209 351T253 307T297 250T317 165Q317 132 304 101T267 44T211 4T139 -12ZM214 606L181 750H242L275 658L346 750H411L317 606H214Z"  />
<glyph unicode="&#x178;" horiz-adv-x="430" d="M479 788Q479 761 458 740T409 719Q386 719 371 735T355 774Q355 801 376 822T424 843Q447 843 463 827T479 788ZM316 788Q316 761 295 740T247 719Q224 719 208 735T192 774Q192 801 213 822T261 843Q285 843 300 827T316 788ZM98 0L159 276L89 667H217L243 398L389 667H527L285 276L224 0H98Z"  />
<glyph unicode="&#x17D;" horiz-adv-x="376" d="M245 728L212 872H273L306 780L377 872H442L348 728H245ZM-25 0L-2 107L260 556H98L122 667H432L410 565L145 111H317L292 0H-25Z"  />
<glyph unicode="&#x17E;" horiz-adv-x="322" d="M-30 0L-11 89L202 447H68L91 550H359L341 464L126 103H267L244 0H-30ZM189 606L156 750H217L250 658L321 750H386L292 606H189Z"  />
<glyph unicode="&#x192;" horiz-adv-x="367" d="M-30 -119L42 205H6V287H60L90 417Q110 498 151 529T243 561Q268 561 289 553T323 533L279 439Q271 450 256 450Q225 450 214 397L189 287H249V205H171L99 -119H-30Z"  />
<glyph unicode="&#x2C6;" horiz-adv-x="230" d="M238 556L205 648L134 556H69L163 700H266L299 556H238Z"  />
<glyph unicode="&#x2DC;" horiz-adv-x="256" d="M247 554Q224 554 215 565T200 591T190 616T170 628Q144 628 130 560H70Q83 619 108 656T176 694Q199 694 208 683T223 657T234 632T253 620Q278 620 294 688H354Q341 630 315 592T247 554Z"  />
<glyph unicode="&#x3BC;" horiz-adv-x="420" d="M-49 -184L99 483H211L135 138Q123 87 161 87Q183 87 204 106T240 149L314 483H427L320 0H207L220 59Q200 33 167 12T101 -12L63 -184H-49Z"  />
<glyph unicode="&#x2013;" horiz-adv-x="460" d="M19 194L40 290H440L419 194H19Z"  />
<glyph unicode="&#x2014;" horiz-adv-x="640" d="M19 194L40 290H620L599 194H19Z"  />
<glyph unicode="&#x2018;" horiz-adv-x="251" d="M100 488Q100 515 110 542T140 595T184 642T239 678L280 634Q253 622 225 599T186 550Q188 551 191 551T196 551Q219 551 235 536T252 491Q252 475 245 461T227 436T201 419T171 413Q143 413 122 432T100 488Z"  />
<glyph unicode="&#x2019;" horiz-adv-x="251" d="M281 602Q281 575 271 547T241 494T197 448T143 412L102 456Q115 462 129 471T157 491T180 514T196 540Q194 539 191 539T186 539Q163 539 147 554T130 598Q130 614 136 628T154 654T180 671T210 677Q239 677 260 658T281 602Z"  />
<glyph unicode="&#x201A;" horiz-adv-x="251" d="M161 62Q161 35 151 7T121 -46T77 -92T23 -128L-18 -85Q9 -72 37 -50T76 -1H66Q43 -1 27 14T10 58Q10 74 17 88T35 113T61 130T91 137Q119 137 140 118T161 62Z"  />
<glyph unicode="&#x201C;" horiz-adv-x="442" d="M293 488Q293 515 303 542T333 595T377 642T431 678L473 634Q459 628 445 619T418 599T395 576T378 550Q380 551 383 551T388 551Q411 551 428 536T445 491Q445 475 438 461T420 436T394 419T364 413Q336 413 315 432T293 488ZM103 488Q103 515 113 542T143 595T187 642T241 678L282 634Q268 628 254 619T227 599T204 576T188 550Q190 551 193 551T198 551Q221 551 237 536T254 491Q254 475 247 461T229 436T203 419T173 413Q145 413 124 432T103 488Z"  />
<glyph unicode="&#x201D;" horiz-adv-x="442" d="M281 602Q281 575 271 547T241 494T197 448T143 412L102 456Q115 462 129 471T157 491T180 514T196 540Q194 539 191 539T186 539Q163 539 147 554T130 598Q130 614 136 628T154 654T180 671T210 677Q239 677 260 658T281 602ZM472 602Q472 575 462 547T432 494T388 448T334 412L292 456Q319 468 347 491T386 540Q384 539 382 539T377 539Q354 539 337 554T320 598Q320 614 327 628T345 654T371 671T401 677Q429 677 450 658T472 602Z"  />
<glyph unicode="&#x201E;" horiz-adv-x="442" d="M161 62Q161 35 151 7T121 -46T77 -92T23 -128L-18 -85Q9 -72 37 -50T76 -1H66Q43 -1 27 14T10 58Q10 74 17 88T35 113T61 130T91 137Q119 137 140 118T161 62ZM352 62Q352 35 342 7T312 -46T268 -92T214 -128L173 -85Q199 -72 227 -50T267 -1H257Q234 -1 217 14T200 58Q200 74 207 88T225 113T251 130T281 137Q309 137 330 118T352 62Z"  />
<glyph unicode="&#x2020;" horiz-adv-x="273" d="M226 529L185 327H123L172 529L82 525L95 581L183 578L201 677H263L237 578L327 581L314 525L226 529Z"  />
<glyph unicode="&#x2021;" horiz-adv-x="273" d="M314 525L226 529L182 329L272 333L259 277L171 280L152 180H90L117 280L27 277L40 333L127 329L172 529L82 525L95 581L183 578L201 677H263L237 578L327 581L314 525Z"  />
<glyph unicode="&#x2022;" horiz-adv-x="358" d="M296 254Q296 228 286 205T257 165T216 137T166 127Q121 127 92 156T62 231Q62 257 72 280T101 320T142 348T192 358Q237 358 266 329T296 254Z"  />
<glyph unicode="&#x2026;" horiz-adv-x="745" d="M77 -11Q48 -11 29 8T10 56Q10 89 34 113T91 137Q119 137 138 117T158 69Q158 36 134 13T77 -11ZM325 -11Q297 -11 278 8T258 56Q258 89 282 113T339 137Q367 137 386 117T406 69Q406 36 382 13T325 -11ZM573 -11Q545 -11 526 8T506 56Q506 89 530 113T587 137Q616 137 635 117T654 69Q654 36 630 13T573 -11Z"  />
<glyph unicode="&#x2030;" horiz-adv-x="715" d="M277 455Q277 425 268 395T242 341T200 302T146 287Q100 287 75 315T50 393Q50 423 59 453T86 507T127 547T182 562Q228 562 252 534T277 455ZM85 0H36L405 550H455L85 0ZM209 455Q209 502 179 502Q166 502 155 493T136 468T124 433T119 394Q119 369 127 358T149 347Q162 347 173 357T192 382T204 417T209 455ZM441 158Q441 128 432 98T405 44T364 5T310 -10Q264 -10 239 18T214 96Q214 126 223 156T250 210T291 250T345 265Q391 265 416 237T441 158ZM373 158Q373 205 342 205Q329 205 318 196T299 171T287 136T282 97Q282 72 290 61T312 50Q325 50 336 60T356 85T368 120T373 158ZM678 158Q678 128 669 98T642 44T601 5T547 -10Q501 -10 476 18T451 96Q451 126 460 156T487 210T528 250T582 265Q628 265 653 237T678 158ZM610 158Q610 183 602 194T580 205Q566 205 555 196T536 171T524 136T519 97Q519 50 550 50Q563 50 574 60T593 85T605 120T610 158Z"  />
<glyph unicode="&#x2039;" horiz-adv-x="238" d="M79 63L29 243L159 420H249L116 239L165 63H79Z"  />
<glyph unicode="&#x203A;" horiz-adv-x="238" d="M159 420L209 240L79 63H-11L122 244L73 420H159Z"  />
<glyph unicode="&#x20AC;" horiz-adv-x="400" d="M173 304Q165 271 161 245H243L231 189H154V174Q154 127 166 109T202 91Q225 91 240 109T269 160L357 121Q344 95 329 72T294 29T249 -1T191 -12Q158 -12 130 -2T80 31T47 88T35 171V189H3L15 245H41Q43 259 45 274T52 304H27L40 360H69Q82 399 101 435T146 500T204 545T275 562Q345 562 379 522T418 414L318 392Q313 459 273 459Q246 459 225 431T189 360H268L256 304H173Z"  />
<glyph unicode="&#x2122;" horiz-adv-x="374" d="M356 447L396 629L301 447H293L278 629L238 447H210L258 667H301L311 510L389 667H432L384 447H356ZM175 641L132 447H104L147 641H105L110 667H222L217 641H175Z"  />


</font>
</defs>
</svg>
